HIERARCHY
ROOT Hips
{
    OFFSET 0.000000 0.000000 0.000000
    CHANNELS 6 Xposition Yposition Zposition Zrotation Yrotation Xrotation
    JOINT LeftUpLeg
    {
        OFFSET 1.363060 -1.794630 0.839290
        CHANNELS 3 Zrotation Yrotation Xrotation
        JOINT LeftLeg
        {
            OFFSET 2.448110 -6.726130 0.000000
            CHANNELS 3 Zrotation Yrotation Xrotation
            JOINT LeftFoot
            {
                OFFSET 2.562200 -7.039589 0.000000
                CHANNELS 3 Zrotation Yrotation Xrotation
                JOINT LeftToeBase
                {
                    OFFSET 0.157640 -0.433110 2.322550
                    CHANNELS 3 Zrotation Yrotation Xrotation
                    End Site
                    {
                        OFFSET 0.000000 0.000000 0.000000
                    }
                }
            }
        }
    }
    JOINT RightUpLeg
    {
        OFFSET -1.305520 -1.794630 0.839290
        CHANNELS 3 Zrotation Yrotation Xrotation
        JOINT RightLeg
        {
            OFFSET -2.542530 -6.985549 0.000000
            CHANNELS 3 Zrotation Yrotation Xrotation
            JOINT RightFoot
            {
                OFFSET -2.568260 -7.056230 0.000000
                CHANNELS 3 Zrotation Yrotation Xrotation
                JOINT RightToeBase
                {
                    OFFSET -0.164730 -0.452590 2.363150
                    CHANNELS 3 Zrotation Yrotation Xrotation
                    End Site
                    {
                        OFFSET 0.000000 0.000000 0.000000
                    }
                }
            }
        }
    }
    JOINT Spine
    {
        OFFSET 0.028270 2.035590 -0.193380
        CHANNELS 3 Zrotation Yrotation Xrotation
        JOINT Spine1
        {
            OFFSET 0.056720 2.048850 -0.042750
            CHANNELS 3 Zrotation Yrotation Xrotation
            JOINT Neck1
            {
                OFFSET -0.054170 1.746240 0.172020
                CHANNELS 3 Zrotation Yrotation Xrotation
                JOINT Head
                {
                    OFFSET 0.104070 1.761360 -0.123970
                    CHANNELS 3 Zrotation Yrotation Xrotation
                    End Site
                    {
                        OFFSET 0.000000 0.000000 0.000000
                    }
                }
            }
            JOINT LeftShoulder
            {
                OFFSET 0.000000 0.000000 0.000000
                CHANNELS 3 Zrotation Yrotation Xrotation
                JOINT LeftArm
                {
                    OFFSET 3.362410 1.200890 -0.311210
                    CHANNELS 3 Zrotation Yrotation Xrotation
                    JOINT LeftForeArm
                    {
                        OFFSET 4.983000 -0.000000 -0.000000
                        CHANNELS 3 Zrotation Yrotation Xrotation
                        JOINT LeftHand
                        {
                            OFFSET 3.483560 -0.000000 -0.000000
                            CHANNELS 3 Zrotation Yrotation Xrotation
                            End Site
                            {
                                OFFSET 0.000000 0.000000 0.000000
                            }
                        }
                    }
                }
            }
            JOINT RightShoulder
            {
                OFFSET 0.000000 0.000000 0.000000
                CHANNELS 3 Zrotation Yrotation Xrotation
                JOINT RightArm
                {
                    OFFSET -3.136600 1.374050 -0.404650
                    CHANNELS 3 Zrotation Yrotation Xrotation
                    JOINT RightForeArm
                    {
                        OFFSET -5.241900 -0.000000 -0.000000
                        CHANNELS 3 Zrotation Yrotation Xrotation
                        JOINT RightHand
                        {
                            OFFSET -3.444170 -0.000000 -0.000000
                            CHANNELS 3 Zrotation Yrotation Xrotation
                            End Site
                            {
                                OFFSET 0.000000 0.000000 0.000000
                            }
                        }
                    }
                }
            }
        }
    }
}
MOTION
Frames: 12
Frame Time: 0.016667
22.191486 18.023773 -1.468043 -2.662050 -11.660356 5.905485 -20.345484 3.197431 -0.631559 1.044566 -7.737031 12.260735 -8.310317 40.411934 -3.930996 0.380957 1.058298 1.553424 11.573716 11.091866 -45.167233 13.539690 18.854576 36.326466 8.173137 -35.002033 -33.526203 -0.471796 -1.721116 -3.211939 7.684630 -8.773917 -7.971384 0.761727 -4.704706 0.629402 6.197747 8.606923 12.073579 -1.657169 10.337095 -9.222585 -3.155201 2.941622 3.548965 -43.123871 0.983099 7.301075 23.742365 -3.399558 -61.345776 -0.877809 -10.127816 -60.392395 5.641573 -7.671265 2.439928 50.652546 -14.956856 0.882957 -9.353910 -1.099923 -46.191269 -2.904297 2.760979 -46.708931 
22.166302 18.033682 -1.308815 -2.625043 -11.391206 5.954773 -20.233768 4.187235 -0.504387 0.829377 -9.379953 12.922783 -9.314023 40.753361 -4.348379 0.204763 0.658766 0.783609 12.019546 10.650150 -45.637684 15.999173 21.527216 38.933903 8.256727 -37.810673 -34.789700 -0.487160 -1.790858 -3.461248 7.758484 -8.980547 -8.053704 0.876230 -4.802258 0.583463 6.178613 8.412171 12.152714 -1.960788 10.156615 -9.259388 -3.020700 2.901956 3.487972 -43.020794 0.939783 7.426689 23.982653 -3.616311 -61.403408 -1.076791 -10.446066 -60.315086 5.627990 -7.739982 2.431069 50.772594 -15.194297 0.978225 -9.287159 -1.162547 -46.390423 -3.187948 2.641361 -46.915215 
22.141380 18.043028 -1.149671 -2.532817 -11.264441 5.911324 -20.137638 3.868080 -0.181833 0.491613 -9.358056 13.720948 -10.189985 40.877716 -4.972581 0.102814 0.630508 0.160060 12.072302 10.658573 -45.545113 16.163420 21.393391 38.833054 8.619571 -38.005013 -34.930767 -0.252373 -0.921471 -4.296589 7.774255 -9.028199 -8.091087 0.957503 -4.822797 0.582162 6.315059 8.184440 12.115476 -2.370272 9.955996 -8.487222 -3.027743 2.849350 3.474926 -42.895245 0.859603 7.421619 24.214859 -3.774312 -61.503517 -0.892299 -10.190061 -60.353546 5.677508 -7.739955 2.476746 50.880234 -15.320675 1.007678 -9.220228 -1.220668 -46.331257 -2.988371 2.847170 -46.882084 
22.109131 18.048435 -0.989753 -2.417797 -11.056808 5.900111 -20.102375 3.821126 0.209603 0.305340 -9.633779 14.212365 -10.412395 40.843094 -5.110631 0.079689 0.828885 -0.140195 11.635633 11.240128 -44.991348 14.352171 18.975603 36.539356 8.855900 -36.189678 -33.964481 -0.312499 -1.152498 -4.204359 7.782408 -9.088674 -8.124772 1.018459 -4.848617 0.554742 6.178610 8.088206 12.250413 -2.448855 9.870849 -8.781418 -2.869314 2.857505 3.391383 -42.998665 0.757415 7.738407 24.530741 -3.942123 -61.456745 -1.173347 -10.689739 -60.181564 5.656763 -7.763726 2.517713 51.035419 -15.368286 0.780220 -9.071779 -1.237825 -46.180744 -3.157227 2.501980 -46.710663 
22.075310 18.053698 -0.824716 -2.290828 -10.813497 5.859815 -20.001436 4.049216 0.461588 -0.401201 -12.005116 15.820013 -11.905328 42.259357 -6.663922 0.019823 1.377823 -0.913661 10.685072 12.385208 -43.929802 13.527761 17.709969 34.836620 9.330786 -36.497112 -33.663940 -0.297550 -1.085461 -3.846412 7.780054 -9.087256 -8.193651 1.035422 -4.846494 0.547968 6.082633 7.915565 12.249474 -2.345532 9.702179 -8.408020 -2.796982 2.845442 3.370515 -43.013805 0.758707 7.766493 24.803915 -4.046418 -61.948532 -1.333829 -10.383595 -60.590614 5.629437 -7.735015 2.530089 51.191898 -15.413085 0.967553 -8.949624 -1.318599 -46.117920 -2.971358 2.749973 -46.676109 
22.034830 18.050367 -0.652977 -2.088405 -10.386036 5.803912 -19.937799 4.370719 0.691533 -0.195181 -10.654222 15.750174 -12.274096 40.285297 -6.076866 -0.088753 1.281224 -1.512900 8.099585 15.203378 -42.053883 12.928641 15.970394 32.324314 9.763110 -38.210548 -33.653652 -0.309230 -1.133554 -3.973999 7.743810 -9.136740 -8.301685 1.007583 -4.873791 0.535575 5.961641 7.757965 12.234820 -2.305896 9.549950 -8.109717 -2.734493 2.855086 3.340937 -43.112282 0.668468 7.784050 25.089716 -4.367891 -61.628536 -1.290815 -10.695254 -60.096020 5.583462 -7.755684 2.541948 51.382877 -15.409882 1.335708 -8.863667 -1.422470 -46.127834 -2.982999 2.488154 -46.692299 
21.996721 18.045256 -0.477005 -1.855828 -9.870336 5.670907 -19.840807 5.050314 0.881704 -0.417255 -10.995389 16.442736 -12.830621 39.514671 -6.214178 -0.115413 1.602836 -1.887684 6.303487 17.388037 -40.105072 11.378995 13.388060 29.426840 9.217854 -38.019352 -32.304123 -0.201688 -0.715291 -3.542159 7.662624 -9.134778 -8.389861 0.967946 -4.875494 0.543911 5.898334 7.489550 12.188286 -2.226645 9.286383 -7.521294 -2.679422 2.843035 3.385535 -43.389351 0.525639 8.076768 25.675863 -4.331271 -61.602551 -1.255227 -10.818975 -60.082195 5.547938 -7.740309 2.541596 51.486530 -15.446588 1.280805 -8.731837 -1.488760 -46.283119 -3.183420 2.440189 -46.851234 
21.954124 18.031317 -0.301184 -1.610736 -9.265354 5.577975 -19.808741 5.786196 0.900887 -0.871950 -12.282013 17.752720 -13.804245 39.442574 -7.031540 -0.315104 1.301976 -2.919493 4.888921 19.293739 -38.260044 10.989826 13.328011 28.292688 9.787469 -39.232704 -32.200695 -0.197338 -0.703434 -3.941350 7.566973 -9.161073 -8.478403 0.948878 -4.887665 0.528419 5.823848 7.215720 12.192248 -2.305014 9.016155 -7.228790 -2.547344 2.829333 3.322670 -43.739723 0.512697 7.781713 26.197153 -4.742775 -61.171173 -1.919666 -11.943542 -59.324230 5.480847 -7.747897 2.605273 51.630085 -15.332257 1.484598 -8.718889 -1.564363 -46.332790 -3.149818 2.298167 -46.910782 
21.905525 18.012547 -0.120475 -1.322610 -8.546467 5.421605 -19.696754 6.818034 0.915145 -1.031527 -12.456755 18.495090 -14.225940 37.971085 -6.879970 -0.434292 1.115628 -3.548085 3.620362 21.070581 -36.182060 10.703697 13.528598 27.143099 9.549417 -40.612366 -31.739582 -0.303590 -1.107044 -3.788509 7.447290 -9.145332 -8.526216 0.827207 -4.884833 0.539197 5.661489 6.891189 12.002106 -1.973442 8.652995 -6.470913 -2.569941 2.812078 3.393701 -43.896736 0.353017 7.846381 26.578775 -4.834700 -61.203194 -2.133297 -12.117035 -59.263222 5.429595 -7.704419 2.561996 51.785522 -15.412066 1.498961 -8.734356 -1.566040 -46.340347 -3.130559 2.392852 -46.925125 
21.855282 17.984196 0.064967 -1.067081 -7.805082 5.333947 -19.578262 7.153791 1.338878 -1.734828 -14.220986 19.684139 -14.652998 38.663986 -7.783347 -0.649931 1.333115 -5.000812 3.745136 21.276495 -34.471256 9.093933 12.224335 25.750029 9.217201 -38.371437 -30.114643 -0.306509 -1.099160 -3.049501 7.325729 -9.096232 -8.622430 0.759821 -4.862315 0.566139 5.642403 6.575975 11.948682 -2.287027 8.340641 -6.312816 -2.658658 2.784654 3.352006 -43.800385 0.612271 7.373482 26.067020 -4.577117 -61.571526 -0.099647 -8.586200 -59.924713 5.374590 -7.649844 2.610397 51.811218 -15.417312 1.437637 -8.658483 -1.553160 -46.309105 -3.260985 2.178654 -46.877136 
21.800459 17.948215 0.251806 -0.763817 -7.106733 5.196799 -19.479950 7.963880 1.597281 -1.676697 -14.286442 20.143906 -15.303194 37.440163 -7.690651 -0.798303 0.805985 -5.675535 4.648455 20.263798 -33.017567 8.535893 13.388627 26.053017 9.715177 -37.464790 -29.778902 -0.199823 -0.708007 -3.522549 7.196433 -8.971148 -8.641709 0.648611 -4.804504 0.629282 5.476510 6.294642 11.713784 -2.259288 8.024625 -5.781026 -2.649886 2.851823 3.488637 -44.070435 0.379019 7.427845 26.325031 -4.548823 -61.378876 -0.314029 -8.996969 -59.730736 5.331993 -7.657967 2.608329 51.826298 -15.281597 1.407350 -8.624454 -1.482579 -45.944973 -2.739709 2.654392 -46.522251 
21.744015 17.909489 0.448089 -0.449467 -6.415555 5.128193 -19.272528 7.751141 2.062052 -2.209291 -14.314885 20.960209 -16.016447 36.852482 -8.242149 -0.912337 0.989320 -6.478648 5.769578 18.652668 -31.795183 8.087532 14.329492 26.463745 9.527442 -36.680969 -28.529741 -0.182649 -0.643345 -3.549372 7.024114 -8.752124 -8.741180 0.565581 -4.699563 0.646932 5.463501 5.909483 11.647236 -2.571399 7.631454 -5.571540 -2.664795 2.853823 3.491983 -44.275738 0.401814 7.209223 26.187155 -4.711194 -61.377346 -0.200811 -8.730212 -59.636917 5.266178 -7.563259 2.602745 51.762199 -15.390648 1.390535 -8.636019 -1.396779 -45.978741 -2.736796 2.671349 -46.543503 
